<svg width="90" height="54" viewBox="0 0 90 54" fill="none" xmlns="http://www.w3.org/2000/svg">
<path d="M25.6946 46.375C25.5221 46.3736 25.3861 46.509 25.3848 46.6826C25.3843 46.8557 25.5176 46.9939 25.6905 46.9952C25.8635 46.9962 26.0008 46.8598 26.0022 46.6867C26.004 46.5131 25.8676 46.3759 25.6946 46.375Z" fill="white"/>
<path d="M30.2254 45.639C30.5736 45.6409 30.8676 45.8031 31.0767 46.1089L31.1052 46.1493L31.4204 45.9012L31.397 45.8662C31.1535 45.48 30.715 45.2478 30.2254 45.2446L30.2019 45.2442C29.8163 45.2414 29.4383 45.4005 29.1619 45.6795C28.8882 45.9576 28.7391 46.3224 28.7468 46.7041C28.7346 47.0876 28.8782 47.452 29.1488 47.7351C29.4211 48.0182 29.7977 48.1827 30.183 48.1845H30.2065C30.6996 48.1891 31.1422 47.961 31.3857 47.5775L31.4105 47.542L31.098 47.2912L31.0691 47.3321C30.8568 47.6338 30.5601 47.7928 30.2119 47.7906C29.618 47.7869 29.1709 47.3216 29.175 46.7082C29.1781 46.0943 29.6315 45.6345 30.2254 45.639Z" fill="white"/>
<path d="M34.3644 47.7784L32.8839 47.7684L32.8894 46.8292L33.9859 46.8355L33.9886 46.4488L32.8921 46.442L32.8966 45.6932L34.3287 45.7032L34.3318 45.317L32.4829 45.3047L32.4648 48.1537L34.3616 48.166L34.3644 47.7784Z" fill="white"/>
<path d="M37.1082 47.7974L35.8102 47.7879L35.826 45.326L35.4087 45.3237L35.3906 48.1732L37.105 48.1837L37.1082 47.7974Z" fill="white"/>
<path d="M38.4991 46.8649L39.5933 46.8713L39.5951 46.4859L38.5013 46.4782L38.5058 45.7303L39.9361 45.7403L39.9384 45.3536L38.0894 45.3418L38.0723 48.1913L39.9709 48.2017L39.9736 47.8155L38.4923 47.8055L38.4991 46.8649Z" fill="white"/>
<path d="M42.6064 45.5794C42.4551 45.4399 42.2546 45.3686 42.0062 45.3677L41.0185 45.3608L41 48.2103L42.1756 48.218C42.7212 48.2217 43.0915 47.8859 43.0946 47.3833C43.0974 47.0371 42.9176 46.7663 42.6091 46.6404C42.751 46.5045 42.8282 46.3255 42.8291 46.1169C42.83 45.8993 42.7559 45.7171 42.6064 45.5794ZM41.9674 46.515L41.4295 46.5109L41.4336 45.7498L41.9724 45.753C42.2524 45.7553 42.405 45.8907 42.4032 46.1342C42.4014 46.3782 42.242 46.5159 41.9674 46.515ZM41.4259 46.9017L42.1507 46.9062C42.4777 46.9089 42.6715 47.0839 42.6697 47.3715C42.6679 47.661 42.4719 47.8323 42.1449 47.83L41.4196 47.8254L41.4259 46.9017Z" fill="white"/>
<path d="M46.0799 46.237C46.0835 45.7403 45.706 45.3913 45.1627 45.3868L44.1533 45.3813L44.1348 48.2299L44.5516 48.2331L44.5579 47.0758L45.0728 47.0794L45.9024 48.2217L45.9173 48.2417L46.4123 48.2449L45.5276 47.0235C45.8726 46.9008 46.0772 46.61 46.0799 46.237ZM44.567 45.7694L45.1469 45.7739C45.4594 45.7758 45.6509 45.9534 45.6491 46.2379C45.6482 46.526 45.4576 46.6954 45.141 46.6941L44.5611 46.6895L44.567 45.7694Z" fill="white"/>
<path d="M48.4548 45.3631L48.2714 45.3613L47.0254 48.2485L47.4689 48.2521L47.7051 47.6937L48.9868 47.7023L49.2135 48.2626L49.6611 48.2662L48.4656 45.3904L48.4548 45.3631ZM48.826 47.3134L47.869 47.307L48.355 46.1265L48.826 47.3134Z" fill="white"/>
<path d="M50.9798 48.2753L51.3971 48.2775L51.4124 45.8157L52.3802 45.8216L52.383 45.4349L50.0355 45.4194L50.0332 45.8066L50.9956 45.8125L50.9798 48.2753Z" fill="white"/>
<path d="M53.7489 45.4445L53.332 45.4414L53.3111 48.2909L53.728 48.294L53.7489 45.4445Z" fill="white"/>
<path d="M56.2923 45.4146H56.2729H56.2498C55.8655 45.411 55.4893 45.5691 55.2138 45.8481C54.9401 46.1266 54.7915 46.4911 54.7974 46.8727C54.787 47.2571 54.9311 47.6247 55.203 47.9078C55.4739 48.1882 55.8465 48.3513 56.225 48.3545H56.2521H56.2747C56.6595 48.3568 57.0388 48.1968 57.3161 47.9165C57.5898 47.637 57.7398 47.2735 57.7339 46.8941C57.7443 46.5124 57.5993 46.1462 57.3288 45.8663C57.0537 45.5805 56.6766 45.416 56.2923 45.4146ZM57.3026 46.8882C57.3071 47.1808 57.1969 47.4539 56.9964 47.6588C56.804 47.8551 56.5461 47.9624 56.2742 47.9605H56.2602C55.6672 47.9564 55.2224 47.4893 55.2269 46.8736C55.2296 46.262 55.6808 45.804 56.2751 45.8086H56.2954C56.5646 45.8104 56.8175 45.9213 57.0072 46.118C57.205 46.3247 57.3098 46.5974 57.3026 46.8882Z" fill="white"/>
<path d="M60.6499 47.4745L59.0037 45.4479L58.9893 45.4311L58.8037 45.4307L58.7852 48.326L59.2038 48.3283L59.2165 46.3453L60.8627 48.3669L60.8776 48.3846L61.0618 48.3855L61.0803 45.4911L60.663 45.4888L60.6499 47.4745Z" fill="white"/>
<path d="M64.3104 46.6275C64.1379 46.6256 64.002 46.7601 64.002 46.9342C64.0002 47.1077 64.1329 47.2463 64.3063 47.2468C64.4793 47.2472 64.6166 47.1114 64.6175 46.9378C64.6184 46.7642 64.4834 46.6279 64.3104 46.6275Z" fill="white"/>
<path d="M34.8936 52.4824L33.8011 50.9384L33.7866 50.9179L33.601 50.917L33.582 53.8119L33.9998 53.8151L34.0111 51.928L34.8127 53.0394L34.9762 53.0403L35.7882 51.9475L35.7756 53.826L36.1933 53.8296L36.2118 50.9338L36.0298 50.9329L34.8936 52.4824Z" fill="white"/>
<path d="M38.7618 50.9506L38.7406 50.9497H38.7189C38.3345 50.9475 37.9561 51.1056 37.6819 51.3846C37.4064 51.6636 37.2592 52.0275 37.2641 52.411C37.2542 52.7941 37.3996 53.1603 37.6702 53.4452C37.9416 53.7265 38.3115 53.8896 38.6909 53.8914L38.7198 53.8905H38.7415C39.1249 53.8937 39.5038 53.7342 39.7816 53.452C40.0571 53.174 40.2043 52.8114 40.1993 52.4324C40.2093 52.0493 40.0666 51.6849 39.7947 51.4023C39.5219 51.1179 39.1448 50.9529 38.7618 50.9506ZM39.7698 52.4251C39.7748 52.7168 39.6655 52.9922 39.4641 53.1944C39.2699 53.3907 39.0142 53.4997 38.7419 53.4984L38.7261 53.4957C38.1335 53.492 37.6905 53.0258 37.6946 52.4106C37.6977 51.799 38.148 51.341 38.7415 51.3446L38.7631 51.345C39.0323 51.346 39.2852 51.4568 39.4758 51.6554C39.6727 51.8612 39.7784 52.1334 39.7698 52.4251Z" fill="white"/>
<path d="M42.5689 52.5322L41.4759 50.9877L41.4624 50.9682L41.2763 50.9673L41.2578 53.8617L41.6742 53.8649L41.686 51.9783L42.4885 53.0888L42.6515 53.0906L43.4626 51.9978L43.4509 53.8763L43.8695 53.879L43.889 50.9832L43.7061 50.9823L42.5689 52.5322Z" fill="white"/>
<path d="M45.5383 52.5635L46.6339 52.5699L46.6371 52.1827L45.5419 52.1764L45.546 51.428L46.9785 51.4371L46.9822 51.0508L45.1318 51.0386L45.1133 53.8876L47.0115 53.8999L47.0147 53.5123L45.5324 53.5032L45.5383 52.5635Z" fill="white"/>
<path d="M49.9019 53.056L48.2552 51.0285L48.2421 51.0117L48.0552 51.0112L48.0371 53.9066L48.4558 53.9093L48.4684 51.9255L50.1141 53.9479L50.1291 53.9652L50.3142 53.9666L50.3327 51.0721L49.9154 51.0689L49.9019 53.056Z" fill="white"/>
<path d="M51.2734 51.4648L52.2358 51.4698L52.2209 53.933L52.6378 53.9362L52.6536 51.473L53.6214 51.4793L53.6241 51.0931L51.277 51.0781L51.2734 51.4648Z" fill="white"/>
<path d="M55.6747 52.3758L55.373 52.2291C55.163 52.125 55.0704 52.0728 55.0077 51.9783C54.9747 51.9333 54.9616 51.876 54.9616 51.8056C54.9634 51.5602 55.1851 51.4516 55.4042 51.4534C55.6359 51.4553 55.849 51.5766 55.9881 51.7851L56.0152 51.8247L56.3264 51.5902L56.3047 51.5539C56.1105 51.2462 55.7768 51.0613 55.4087 51.0581C54.9119 51.0554 54.5344 51.3821 54.5307 51.8188C54.5289 52.2118 54.785 52.4172 55.1716 52.6039L55.4773 52.7521C55.7939 52.9111 55.9041 52.9847 55.9032 53.1974C55.9014 53.4468 55.7045 53.6077 55.3978 53.6045C55.1102 53.6027 54.8681 53.45 54.6766 53.1497L54.6486 53.1079L54.332 53.3405L54.3555 53.3764C54.5813 53.7699 54.9616 53.9962 55.3992 53.9998C55.9371 54.003 56.3304 53.6631 56.3341 53.1901C56.3381 52.7893 56.0839 52.5803 55.6747 52.3758Z" fill="white"/>
<path d="M34.8612 1.99639C34.7803 1.99548 34.7017 2.00729 34.625 2.03183C34.2212 2.15951 34.0039 2.57346 34.1291 2.97514C34.2275 3.28503 34.5098 3.49541 34.8341 3.49723C34.9145 3.49814 34.9939 3.48451 35.0721 3.46224C35.2631 3.40135 35.4221 3.27049 35.5165 3.09282C35.6118 2.9147 35.6303 2.70932 35.5702 2.51711C35.4736 2.20768 35.1877 1.99775 34.8612 1.99639ZM34.9565 3.09419C34.7627 3.15644 34.5866 3.05284 34.5238 2.84973C34.4574 2.64116 34.5437 2.46168 34.7383 2.39988C34.7776 2.38671 34.8169 2.38171 34.8544 2.38171C35.0039 2.38307 35.1267 2.48258 35.1769 2.64389C35.2414 2.847 35.1516 3.03284 34.9565 3.09419Z" fill="white"/>
<path d="M39.215 1.80496L38.8866 1.71363C38.6617 1.65047 38.5619 1.61639 38.4869 1.53642C38.4508 1.50234 38.4278 1.4519 38.4138 1.38284C38.3961 1.28378 38.4223 1.19199 38.4869 1.11975C38.552 1.0475 38.6536 0.996152 38.7742 0.974795C38.9991 0.934355 39.2312 1.01206 39.4006 1.18836L39.4512 1.23925L39.7447 0.920723L39.7041 0.874375C39.453 0.602651 39.0722 0.472696 38.7019 0.539946C38.1934 0.630369 37.87 1.03796 37.9495 1.48417C38.0208 1.88721 38.3194 2.04806 38.7462 2.16484L39.0777 2.2539C39.4223 2.35295 39.5365 2.40157 39.5704 2.60378C39.5894 2.70601 39.569 2.80098 39.5153 2.87914C39.4453 2.98183 39.3175 3.05407 39.1553 3.08179C38.8731 3.13268 38.6125 3.02636 38.3713 2.76872L38.3225 2.71646L38.0226 3.03544L38.0628 3.08225C38.3099 3.37124 38.645 3.53345 39.0077 3.53573C39.0831 3.53573 39.1594 3.52982 39.2366 3.51482C39.7867 3.41713 40.1236 2.99455 40.0387 2.51199C39.9651 2.10077 39.6702 1.93719 39.215 1.80496Z" fill="white"/>
<path d="M41.8 0.175844L40.7617 0.270811L41.0237 3.18934L41.4839 3.14618L41.3805 1.98294L41.9577 1.92933C42.5177 1.8798 42.8781 1.48221 42.8307 0.961481C42.7833 0.454838 42.3709 0.129043 41.8 0.175844ZM41.3403 1.55355L41.2594 0.65795L41.8308 0.606605C42.1324 0.577978 42.3321 0.734741 42.3574 1.00965C42.3818 1.29 42.2156 1.47448 41.9102 1.50129L41.3403 1.55355Z" fill="white"/>
<path d="M44.3999 0.00091001L43.166 2.98896L43.6565 2.98487L43.8882 2.41416L45.1618 2.40417L45.4025 2.96988L45.8993 2.96443L44.6108 0L44.3999 0.00091001ZM44.9775 1.97386L44.0652 1.98159L44.5105 0.848796L44.9775 1.97386Z" fill="white"/>
<path d="M48.1378 0.595931C48.4815 0.629556 48.7597 0.814492 48.9413 1.13484L48.9778 1.1989L49.3495 0.952626L49.3215 0.899008C49.1039 0.481425 48.6739 0.205159 48.1735 0.158357C47.3267 0.0688421 46.5896 0.70135 46.5327 1.52516C46.488 1.92047 46.6055 2.31079 46.8624 2.62477C47.123 2.93967 47.5006 3.14005 47.8994 3.16959C47.9454 3.17368 47.991 3.1764 48.0358 3.17731C48.4937 3.18049 48.9038 2.98738 49.1608 2.64977L49.1982 2.6016L48.878 2.29262L48.8311 2.34805C48.5958 2.62977 48.2864 2.76518 47.9427 2.73201C47.6623 2.70475 47.4152 2.57615 47.2413 2.36623C47.0621 2.15085 46.9785 1.86731 47.0065 1.56878C47.0589 0.968076 47.5466 0.543677 48.1378 0.595931Z" fill="white"/>
<path d="M49.9332 3.30391L49.9219 3.3698L51.8512 3.7383L51.9298 3.31345L50.4543 3.03309L50.6237 2.13431L51.7148 2.34197L51.7948 1.91802L50.705 1.70991L50.8364 1.00289L52.2631 1.2737L52.3426 0.850666L50.4611 0.491699L49.9332 3.30391Z" fill="white"/>
<path d="M55.8169 2.51333C55.7234 2.33567 55.5662 2.20389 55.3756 2.14028C55.2993 2.11574 55.2198 2.10257 55.1394 2.10257C54.8161 2.09984 54.5284 2.30749 54.4277 2.6183C54.3658 2.81232 54.3816 3.01543 54.4737 3.1931C54.5654 3.37031 54.7212 3.50344 54.9145 3.56615C54.9895 3.59159 55.0708 3.60432 55.1494 3.60432C55.4773 3.60659 55.764 3.40121 55.8657 3.0904C55.9271 2.89956 55.9104 2.69327 55.8169 2.51333ZM55.4718 2.96181C55.4217 3.12176 55.2943 3.21945 55.1449 3.21945C55.1065 3.21854 55.0694 3.21264 55.031 3.20037C54.9394 3.16947 54.8685 3.1104 54.8292 3.02861C54.7908 2.94636 54.7872 2.84958 54.8206 2.74643C54.873 2.58513 54.9945 2.48743 55.1435 2.48925C55.181 2.48925 55.2194 2.49516 55.2564 2.50652C55.4506 2.57013 55.5382 2.75779 55.4718 2.96181Z" fill="white"/>
<path d="M11.1593 20.8978H11.2786C11.5392 20.8978 11.7835 20.7574 12.0107 20.4761C12.1705 20.2739 12.3232 19.9931 12.4713 19.6337L15.1621 12.5916C15.2307 12.3993 15.2926 12.2203 15.3495 12.0572C15.4064 11.8932 15.4344 11.7614 15.4344 11.6587C15.4344 11.5006 15.3974 11.3702 15.3242 11.2697C15.2497 11.167 15.1111 11.088 14.9065 11.0312L17.5882 10.9812C17.5991 11.0607 17.6049 11.1339 17.6049 11.2016C17.6627 11.5878 17.8086 12.0976 18.0471 12.7333L20.6259 19.7382C20.797 20.1939 20.9619 20.5801 21.1213 20.8982H21.992L21.3444 23.2628C21.1854 22.9216 20.9917 22.6771 20.7654 22.529C20.4588 22.3359 20.0153 22.2377 19.4372 22.2377H13.0331C12.3629 22.2377 11.8187 22.3463 11.3974 22.5635C11.1932 22.6771 10.8979 22.9098 10.5117 23.2628L11.1593 20.8978ZM13.1009 21.005H19.2321L16.3169 12.8605L13.8741 19.6373C13.623 20.298 13.3637 20.7546 13.1009 21.005Z" fill="white"/>
<path d="M24.8457 13.259V12.7369C24.8457 12.2907 24.8073 11.9381 24.7296 11.68C24.6181 11.3105 24.4112 11.0702 24.1113 10.9584L28.0707 10.908C29.1632 10.908 30.0186 11.1256 30.6364 11.5614C31.2565 11.9962 31.5645 12.5892 31.5645 13.3371C31.5645 13.8733 31.4083 14.3254 31.0971 14.6944C30.8302 15.007 30.4282 15.2801 29.8926 15.515C30.6847 15.6827 31.3247 16.0144 31.8161 16.5078C32.3508 17.0449 32.6173 17.707 32.6173 18.4912C32.6173 19.1074 32.4285 19.6822 32.05 20.2143C31.6706 20.7482 31.1915 21.153 30.612 21.4343C30.1112 21.6806 29.4974 21.8378 28.7735 21.9051C28.4176 21.9387 27.7817 21.955 26.8685 21.955H24.1118C24.4117 21.8205 24.619 21.5575 24.7301 21.1671C24.8077 20.8868 24.8461 20.5065 24.8461 20.0243V19.5881V13.259H24.8457ZM27.1029 15.3478C27.7812 15.3478 28.3553 15.2296 28.824 14.9952C29.4365 14.6948 29.7431 14.2318 29.7431 13.607C29.7431 13.094 29.5593 12.6864 29.1908 12.3856C28.824 12.0848 28.3896 11.9335 27.8874 11.9335C27.7871 11.9335 27.7144 11.9335 27.671 11.9335L26.551 12.0512V15.3482H27.1029V15.3478ZM28.0043 20.745C28.0829 20.7555 28.1999 20.7618 28.3553 20.7618C29.0354 20.7618 29.5918 20.5937 30.0281 20.2565C30.5176 19.8762 30.7629 19.3382 30.7629 18.6426C30.7629 17.8914 30.4391 17.3144 29.7932 16.9109C29.2359 16.5628 28.5449 16.3902 27.7212 16.3902L26.551 16.4565V20.611L28.0043 20.745Z" fill="white"/>
<path d="M46.3861 16.4002C46.3861 18.0101 45.8134 19.3506 44.669 20.4216C43.5246 21.4935 42.1476 22.0278 40.5385 22.0278C38.9167 22.0278 37.5569 21.5171 36.454 20.4938C35.3091 19.4383 34.7383 18.1005 34.7383 16.4802C34.7383 14.9562 35.3127 13.6585 36.4617 12.5875C37.6111 11.5165 39.0228 10.9812 40.6975 10.9812C42.3283 10.9812 43.6949 11.5246 44.7968 12.6125C45.8554 13.6557 46.3861 14.9194 46.3861 16.4002ZM36.5493 16.3362C36.5493 17.5194 36.9151 18.5527 37.6454 19.4378C38.4398 20.3966 39.4306 20.8769 40.618 20.8769C41.8035 20.8769 42.76 20.4852 43.4862 19.7014C44.212 18.918 44.5737 17.9242 44.5737 16.7201C44.5737 15.4833 44.2242 14.4286 43.5246 13.5544C42.7632 12.6056 41.7827 12.1313 40.5864 12.1313C39.3783 12.1313 38.4032 12.5257 37.6621 13.3145C36.9196 14.1038 36.5493 15.1107 36.5493 16.3362Z" fill="white"/>
<path d="M60.9655 20.6442L63.0683 20.845C63.145 20.845 63.2674 20.845 63.4318 20.845C64.4818 20.845 65.3815 20.5106 66.1321 19.8449L65.437 22.0278H58.5312C58.8397 21.8951 59.0488 21.6288 59.1599 21.2294C59.2362 20.9418 59.2769 20.5574 59.2769 20.0812V19.6986V13.4262V13.0105C59.2769 12.4997 59.243 12.1294 59.1757 11.8954C59.0655 11.5073 58.8496 11.2529 58.5312 11.1307L63.8301 11.0811H64.1449C64.3427 11.0811 64.4981 11.048 64.6083 10.9807L64.6566 12.9473C64.4032 12.6797 64.1138 12.502 63.7881 12.4134C63.4639 12.3243 63.0845 12.2798 62.655 12.2798C62.2684 12.2798 61.9564 12.288 61.7179 12.3048C61.4808 12.3225 61.2302 12.3521 60.966 12.3961V15.4796H62.9364C63.057 15.4796 63.1821 15.476 63.309 15.471C63.435 15.4646 63.5537 15.4351 63.6648 15.3796L63.7154 17.1454C63.5705 16.9346 63.3799 16.8041 63.1428 16.7542C62.9057 16.7046 62.5877 16.6792 62.1917 16.6792H60.966V20.6442H60.9655Z" fill="white"/>
<path d="M68.2539 22.0232C68.5538 21.8892 68.7602 21.6257 68.8713 21.2344C68.949 20.9554 68.9878 20.5801 68.9878 20.1098V19.6736V13.3294V12.8096C68.9878 12.3621 68.949 12.0094 68.8713 11.7523C68.7602 11.3833 68.5538 11.1425 68.2539 11.0307L71.4275 10.9807C71.1258 11.1157 70.9293 11.3501 70.8345 11.6855C70.7401 12.0208 70.6931 12.4298 70.6931 12.91V13.3463V20.7132C70.792 20.7237 70.8828 20.7292 70.9582 20.7292C71.5499 20.7855 72.0119 20.8132 72.3465 20.8132H75.0517C75.4415 20.8132 75.7703 20.8019 76.0385 20.7782C76.3045 20.7551 76.5335 20.731 76.7223 20.7073V13.3453V12.8083C76.7223 12.3611 76.6843 12.009 76.6058 11.7523C76.4947 11.3833 76.2887 11.1425 75.9879 11.0307L79.1791 10.9807C78.8661 11.1157 78.6634 11.3583 78.569 11.7091C78.4737 12.0617 78.4258 12.4734 78.4258 12.9432V13.3294V19.6686C78.4258 19.8922 78.4258 20.0794 78.4258 20.2302C78.4258 20.3811 78.4258 20.5406 78.4258 20.7073H79.4957L78.8616 23.0274C78.7054 22.693 78.5157 22.4526 78.2926 22.3068C77.9913 22.1178 77.5573 22.0232 76.9892 22.0232H68.2539V22.0232Z" fill="white"/>
<path d="M51.0645 21.0881C50.9972 20.8636 50.9642 19.8626 50.9642 19.8626V12.2916C51.354 12.2253 51.7446 12.1907 52.1348 12.1907C52.8466 12.1907 53.4211 12.3611 53.8546 12.7015C54.2891 13.0432 54.5068 13.5603 54.5068 14.2523C54.5068 15.0225 54.1893 15.6536 53.5547 16.1453C52.9645 16.6038 52.2843 16.8319 51.5152 16.8319C51.7261 16.9323 51.9131 16.9968 52.0757 17.0259C52.236 17.0536 52.4568 17.0677 52.735 17.0677C53.7259 17.0677 54.5876 16.7742 55.317 16.1875C56.0459 15.5996 56.4117 14.8426 56.4117 13.9156C56.4117 12.9982 56.054 12.2798 55.3423 11.76C54.6292 11.2406 53.7101 10.9807 52.5846 10.9807L48.5236 11.0139C48.8343 11.1479 49.0457 11.4124 49.1586 11.8045C49.2259 12.0508 49.2589 12.4266 49.2589 12.9309V13.334V19.6732V20.0607C49.2589 20.5433 49.2196 20.9291 49.141 21.2199C49.0299 21.6243 48.8176 21.8928 48.5078 22.0273L48.5692 22.0328H51.9677C51.9682 22.0328 51.1304 21.3058 51.0645 21.0881Z" fill="white"/>
<path d="M12.1465 32.4454C12.1465 34.0548 11.5747 35.3948 10.4312 36.4672C9.2868 37.5377 7.90979 38.0734 6.2993 38.0734C4.67933 38.0734 3.31723 37.5613 2.21572 36.5385C1.07221 35.4839 0.5 34.1462 0.5 32.5254C0.5 31.0018 1.07447 29.705 2.2234 28.6326C3.37278 27.5616 4.78501 27.0264 6.45873 27.0264C8.08954 27.0264 9.45661 27.5698 10.5586 28.6576C11.6176 29.7023 12.1465 30.965 12.1465 32.4454ZM2.31056 32.3818C2.31056 33.565 2.67592 34.5996 3.40755 35.4839C4.20196 36.4436 5.19192 36.9229 6.37924 36.9229C7.56475 36.9229 8.52039 36.5313 9.2466 35.7483C9.97236 34.9632 10.3359 33.9708 10.3359 32.7657C10.3359 31.5298 9.98591 30.4743 9.2868 29.5996C8.524 28.6508 7.54398 28.1773 6.34672 28.1773C5.13953 28.1773 4.16448 28.5717 3.42246 29.3606C2.68134 30.1498 2.31056 31.1563 2.31056 32.3818Z" fill="white"/>
<path d="M35.8618 37.3866C35.7715 37.163 35.7277 36.8813 35.7277 36.5414V35.9493V33.885V33.4402V31.6908V29.0844V28.6523C35.7277 28.3129 35.7719 28.0016 35.8618 27.719C35.9521 27.4377 36.14 27.2051 36.4268 27.0251H34.1063C34.0648 27.1637 33.9853 27.2973 33.871 27.425L33.652 27.7503L28.3061 35.1305V29.084C28.3061 28.5087 28.3368 28.1157 28.401 27.9026C28.5062 27.5622 28.751 27.2705 29.1321 27.0251L25.8574 27.057C26.2395 27.2796 26.4834 27.5618 26.5895 27.9021C26.6527 28.1048 26.6852 28.4937 26.6852 29.0681V38.0091H26.7254C27.224 37.8409 27.6504 37.6078 27.9995 37.3089C28.2849 37.0662 28.6168 36.7004 28.9976 36.212L34.1063 29.1889V31.6908V33.4402V33.885V35.9443C34.1063 36.4669 34.053 36.8622 33.9469 37.1285C33.8114 37.4638 33.5517 37.7573 33.1724 38.0091H36.8861C36.4141 37.776 35.9097 37.5038 35.8618 37.3866Z" fill="white"/>
<path d="M77.938 37.3866C77.8481 37.1639 77.8025 36.8826 77.8025 36.5423V35.9502V33.8859V33.4411V31.6908V29.0844V28.6528C77.8025 28.3129 77.8481 28.0016 77.938 27.7199C78.0288 27.4377 78.2153 27.2051 78.5025 27.0251H76.1825C76.1405 27.1646 76.0619 27.2973 75.9463 27.425L75.7286 27.7503L70.3823 35.1305V29.084C70.3823 28.5096 70.4139 28.1161 70.4785 27.9035C70.5819 27.5622 70.8267 27.2705 71.2079 27.0251L67.9336 27.057C68.3157 27.2796 68.5595 27.5618 68.6661 27.903C68.7289 28.1048 68.7614 28.4937 68.7614 29.0681V38.0095H68.8025C69.3007 37.8409 69.7265 37.6088 70.0761 37.3093C70.3611 37.0662 70.6935 36.7004 71.0737 36.2124L76.183 29.1889V31.6908V33.4411V33.8859V35.9452C76.183 36.4673 76.1288 36.8631 76.0231 37.1294C75.8876 37.4643 75.6288 37.7582 75.2495 38.01H78.9632C78.4899 37.776 77.9845 37.5038 77.938 37.3866Z" fill="white"/>
<path d="M52.2762 37.071C52.2546 36.9851 52.2184 36.7438 52.166 36.3462L51.1169 28.0005C51.1169 27.791 51.1571 27.5952 51.2357 27.4111C51.3152 27.2289 51.4394 27.099 51.6087 27.0254H48.8601C48.8601 27.1649 48.834 27.3271 48.7816 27.5134C48.7301 27.701 48.6781 27.8692 48.6267 28.0186L46.8247 32.6307L46.3351 33.8848L45.9815 34.7909L45.599 33.8848L45.0683 32.6307L43.0017 27.7424C42.9692 27.6697 42.9154 27.5552 42.8396 27.3998C42.7966 27.2744 42.7745 27.1494 42.7745 27.0249L39.9934 27.0726C40.1948 27.1771 40.3385 27.3121 40.4225 27.4757C40.5074 27.6388 40.5494 27.8055 40.5494 27.9737C40.5494 28.1004 40.5471 28.1881 40.5408 28.2349C40.5349 28.2822 40.515 28.3849 40.4807 28.543C40.4807 28.543 39.4054 36.7561 39.3327 36.9683C39.199 37.3777 38.9881 37.7244 38.7031 38.0093H41.346C41.0678 37.8093 40.8429 37.6353 40.8122 37.5772C40.7219 37.4118 40.6767 37.2 40.6767 36.9428C40.6767 36.8247 40.6853 36.6888 40.7002 36.5339C40.7169 36.378 41.6771 28.5766 41.6771 28.5766C41.6771 28.5766 42.5668 30.5278 43.5495 32.6311C43.7451 33.0487 43.9429 33.4704 44.1384 33.8853C45.0638 35.8437 45.9323 37.6226 46.0958 37.7494L47.5942 33.8853L48.0802 32.6311L49.6541 28.5775L50.5569 36.7793C50.5569 37.0773 50.5108 37.3359 50.4223 37.554C50.3356 37.7616 50.1739 37.913 49.9413 38.0097H53.1777C52.7143 37.5999 52.3155 37.2141 52.2762 37.071Z" fill="white"/>
<path d="M64.9734 37.2262C64.9079 36.9985 64.8744 36.6341 64.8744 36.1356V35.7439V29.3066V28.9327C64.8744 28.476 64.9214 28.0766 65.0135 27.734C65.1052 27.3923 65.3012 27.1565 65.6061 27.0251L54.9961 27.0738C55.2883 27.1828 55.4875 27.4164 55.5968 27.7744C55.6717 28.0248 55.7097 28.367 55.7097 28.8009V29.3062V36.167C55.7097 36.6232 55.6713 36.9881 55.5968 37.2593C55.4915 37.6278 55.2978 37.8755 55.0205 38.0091H58.1651C58.1651 38.0091 57.5198 37.4302 57.4629 37.2252C57.3974 36.9876 57.3649 28.2974 57.3649 28.2974C57.6236 28.2434 57.8924 28.2138 58.1674 28.2084C58.4438 28.2029 58.7279 28.1993 59.0196 28.1993H61.5505C61.9186 28.1993 62.2203 28.2056 62.4587 28.2166C62.6967 28.227 62.951 28.2543 63.222 28.2974V35.7435V36.1997C63.222 36.8086 63.1623 37.2375 63.0436 37.4865C62.9298 37.7264 62.7586 37.9 62.5355 38.0091H65.6869C65.6851 38.0095 65.0303 37.4293 64.9734 37.2262Z" fill="white"/>
<path d="M23.3237 36.8211C23.2058 36.6298 23.0121 36.1859 22.7442 35.5034L19.3196 27.0259L16.0263 27.0877L16.6487 27.2613C16.8239 27.3103 16.9409 27.3758 16.9978 27.4535C17.0569 27.5357 17.0863 27.642 17.0863 27.7724C17.0863 27.8701 17.0615 27.9901 17.0172 28.1241C16.9689 28.2686 16.9061 28.4454 16.8325 28.6471L14.1015 35.5052C13.8391 36.1836 13.6427 36.6466 13.5361 36.8411C13.285 37.2837 12.9562 37.6204 12.5601 37.8408L12.2539 38.0098H16.2959L15.6434 37.7844C15.4541 37.714 15.3159 37.6272 15.2373 37.5268C15.1556 37.4291 15.1154 37.3164 15.1154 37.1846C15.1154 37.0524 15.1389 36.9147 15.1795 36.777C15.2256 36.6216 15.2924 36.434 15.3773 36.2172L16.2079 33.958L16.6938 32.5508L18.1711 28.7603L19.6384 32.5508L20.2016 33.958L21.0579 36.2045C21.1008 36.3404 21.1717 36.5321 21.2656 36.7698C21.3569 37.0033 21.3993 37.1787 21.3993 37.2987C21.3993 37.4777 21.2191 37.6595 20.8641 37.8385L20.5254 38.0098H24.8931L24.2987 37.7908C23.9054 37.5908 23.5766 37.2669 23.3237 36.8211Z" fill="white"/>
<path d="M88.9098 37.3529C88.8154 37.0353 88.768 36.6532 88.768 36.2074V35.689V29.383V28.9145C88.768 28.4696 88.8118 28.0902 88.8976 27.7694C89.0128 27.405 89.2124 27.1542 89.501 27.0251H86.7294H86.6192C85.7624 27.0265 85.1568 27.0433 84.8149 27.0756C84.0874 27.1424 83.4704 27.3005 82.9669 27.5486C82.3847 27.8308 81.9028 28.2384 81.5217 28.7745C81.1414 29.3094 80.9517 29.8873 80.9517 30.5067C80.9517 31.295 81.22 31.9607 81.757 32.5001C82.2501 32.9967 82.8942 33.3293 83.6899 33.4979C83.671 33.5065 83.9022 33.5165 84.2766 33.5274L82.62 35.6194C82.1869 36.1538 81.7371 36.6282 81.271 37.0403C80.8049 37.452 80.3556 37.7601 79.9238 37.96L81.4539 38.01C82.3301 38.01 82.9971 37.7146 83.4524 37.1235C83.7522 36.7559 83.9839 36.4605 84.151 36.2374C84.772 35.4459 85.1956 34.8992 85.416 34.598C85.6233 34.3176 85.86 33.9732 86.1197 33.5692C86.2199 33.4134 86.3242 33.2512 86.4317 33.0767C86.5203 32.9367 86.6264 32.7659 86.7483 32.5682L85.8722 32.6182C85.4047 32.6182 84.9847 32.5564 84.6031 32.4451C84.3082 32.3597 84.0341 32.2465 83.7897 32.0938C83.1403 31.6885 82.8142 31.1087 82.8142 30.3535C82.8142 29.6556 83.0617 29.1135 83.5531 28.7318C83.9912 28.3938 84.5507 28.2243 85.2345 28.2243C85.3907 28.2243 85.5082 28.2302 85.5867 28.2415L87.0477 28.3765L87.0685 32.565V35.6885V36.0734C87.0685 36.5532 87.0292 36.9376 86.9525 37.2271C86.8463 37.6124 86.6431 37.8718 86.3527 38.0109H89.4834C89.4838 38.0109 88.9572 37.5142 88.9098 37.3529Z" fill="white"/>
</svg>
