<svg width="24" height="24" viewBox="0 0 24 24" fill="none" xmlns="http://www.w3.org/2000/svg">
<path fill-rule="evenodd" clip-rule="evenodd" d="M11 19.8904C11 20.4427 11.4477 20.8904 12 20.8904C12.5523 20.8904 13 20.4427 13 19.8904V13H19.8902C20.4424 13 20.8902 12.5523 20.8902 12C20.8902 11.4478 20.4424 11 19.8902 11H13V4.10962C13 3.55733 12.5523 3.10962 12 3.10962C11.4477 3.10962 11 3.55733 11 4.10962V11H4.10938C3.55709 11 3.10938 11.4478 3.10938 12C3.10938 12.5523 3.55709 13 4.10938 13H11V19.8904Z" fill="#13131B"/>
</svg>
